<svg width="1050" height="1050" viewBox="0 0 1050 1050" fill="none" xmlns="http://www.w3.org/2000/svg">
<path d="M349.951 816.09H349.908L349.951 932.63H349.908L349.951 1049.17L233.098 1049.21L233.097 1049.17L116.582 1049.21L116.581 1049.17C52.1897 1049.02 0.0236163 996.791 0 932.36L0.0419922 932.359L0 815.819L0.0419922 815.818L0 699.279L116.854 699.236V699.278L233.393 699.236V699.278L349.908 699.236L349.951 816.09ZM583.061 583.013H583.018L583.061 699.552H583.018L583.061 816.09H583.018L583.061 932.63H583.018L583.061 1049.17L466.207 1049.21L466.164 932.36L466.206 932.359L466.164 815.819L466.206 815.818L466.164 699.279L466.206 699.278L466.164 583.013L349.676 583.055L349.675 583.013L233.098 583.055L233.097 583.013L116.582 583.055L116.581 583.013L0.0429688 583.055L0 466.201L116.854 466.159V466.2L233.393 466.159V466.2L349.908 466.159V466.2L466.486 466.159V466.2L583.018 466.159L583.061 583.013ZM816.115 349.934H816.072L816.115 466.475H816.072L816.115 583.013H816.072L816.115 699.552H816.072L816.115 816.09H816.072L816.115 932.63H816.072L816.115 1049.17L699.262 1049.21L699.219 932.36L699.261 932.359L699.219 815.819L699.261 815.818L699.219 699.279L699.261 699.278L699.219 582.74L699.261 582.739L699.219 466.201L699.261 466.2L699.219 349.934L582.77 349.976L582.769 349.934L466.207 349.976L466.206 349.934L349.676 349.976L349.675 349.934L233.098 349.976L233.097 349.934L116.582 349.976L116.581 349.934L0.0429688 349.976L0 233.122L116.854 233.08V233.121L233.393 233.08V233.121L349.908 233.08V233.121L466.486 233.08V233.121L583.018 233.08V233.121L699.58 233.08V233.121L816.072 233.08L816.115 349.934ZM932.627 0.0439453C997.019 0.189811 1049.19 52.422 1049.21 116.854H1049.17L1049.21 233.395H1049.17L1049.21 349.934H1049.17L1049.21 466.475H1049.17L1049.21 583.013H1049.17L1049.21 699.552H1049.17L1049.21 816.09H1049.17L1049.21 932.63H1049.16C1049.02 997.023 996.788 1049.19 932.355 1049.21L932.312 932.36L932.354 932.359L932.312 815.819L932.354 815.818L932.312 699.279L932.354 699.278L932.312 582.74L932.354 582.739L932.312 466.201L932.354 466.2L932.312 349.664L932.354 349.663L932.312 233.122L932.354 233.121L932.312 116.854L815.816 116.896L815.815 116.854L699.262 116.896L699.261 116.854L582.77 116.896L582.769 116.854L466.207 116.896L466.206 116.854L349.676 116.896L349.675 116.854L233.098 116.896L233.097 116.854L116.582 116.896L116.581 116.854L0.0429688 116.896C0.0195034 52.3594 52.3174 0.0237294 116.854 0V0.0410156L233.393 0V0.0410156L349.908 0V0.0410156L466.486 0V0.0410156L583.018 0V0.0410156L699.58 0V0.0410156L816.072 0V0.0410156L932.627 0V0.0439453Z" fill="#0F2D4A"/>
</svg>
