<svg width="11115" height="1291" viewBox="0 0 11115 1291" fill="none" xmlns="http://www.w3.org/2000/svg">
<path d="M2242.94 1165H1935.43V1129.78H2026.19L1924.59 866.975H1644.18L1542.58 1129.78H1611.66C1616.18 1129.78 1620.7 1130.23 1625.21 1131.13C1638.76 1132.94 1645.53 1144.23 1645.53 1165H1403.05V1129.78H1488.39L1790.48 352.204H1851.44L2163.01 1129.78H2207.71C2212.23 1129.78 2216.75 1130.23 2221.26 1131.13C2235.71 1132.94 2242.94 1144.23 2242.94 1165ZM1908.33 827.69L1783.71 503.926L1659.08 827.69H1908.33ZM2650.36 387.425H2516.25V766.73H2631.4C2640.43 766.73 2649.91 766.279 2659.85 765.375C2761.9 754.538 2812.92 690.418 2812.92 573.014C2812.92 548.63 2810.21 525.601 2804.79 503.926C2784.02 426.259 2732.55 387.425 2650.36 387.425ZM2653.07 1165H2277.83V1129.78H2386.2V387.425H2277.83V352.204H2689.65C2747.45 352.204 2797.12 361.687 2838.66 380.652C2916.33 417.679 2955.16 480.445 2955.16 568.95C2955.16 609.59 2946.13 646.165 2928.07 678.677C2880.2 763.569 2782.67 806.015 2635.46 806.015H2516.25V1129.78H2617.85C2622.37 1129.78 2626.88 1130.23 2631.4 1131.13C2645.85 1133.84 2653.07 1145.13 2653.07 1165ZM3667.39 598.752H3637.59L3615.91 529.665C3615.91 527.858 3615.46 526.052 3614.56 524.246C3586.56 433.032 3537.79 387.425 3468.25 387.425H3263.7V726.09H3540.05V765.375H3263.7V1129.78H3468.25C3481.8 1129.78 3494.89 1127.97 3507.54 1124.36C3556.31 1110.81 3592.43 1065.21 3615.91 987.54L3637.59 918.452H3667.39L3660.61 1165H3025.28V1129.78H3133.65V387.425H3025.28V352.204H3660.61L3667.39 598.752ZM3984.05 1165H3732.09C3732.09 1160.48 3732.54 1155.97 3733.44 1151.45C3736.15 1137 3747.44 1129.78 3767.31 1129.78C3804.33 1129.78 3832.33 1117.14 3851.3 1091.85L4080.23 776.213L3821.49 387.425H3738.86V352.204H4066.69V387.425H3969.15L4165.58 680.032L4376.9 387.425H4268.53V352.204H4505.6C4503.79 368.46 4491.6 380.2 4469.02 387.425C4463.6 387.425 4458.18 387.425 4452.77 387.425C4431.99 389.232 4413.48 401.875 4397.22 425.356L4188.61 713.898L4469.02 1129.78H4512.37C4516.89 1129.78 4521.4 1130.23 4525.92 1131.13C4540.37 1133.84 4547.59 1145.13 4547.59 1165H4218.41V1129.78H4317.3L4104.62 811.434L3875.68 1129.78H3984.05V1165ZM5205.31 387.425H5071.19V766.73H5186.34C5195.37 766.73 5204.85 766.279 5214.79 765.375C5316.84 754.538 5367.86 690.418 5367.86 573.014C5367.86 548.63 5365.16 525.601 5359.74 503.926C5338.97 426.259 5287.49 387.425 5205.31 387.425ZM5208.02 1165H4832.77V1129.78H4941.15V387.425H4832.77V352.204H5244.59C5302.39 352.204 5352.06 361.687 5393.6 380.652C5471.27 417.679 5510.1 480.445 5510.1 568.95C5510.1 609.59 5501.07 646.165 5483.01 678.677C5435.15 763.569 5337.61 806.015 5190.4 806.015H5071.19V1129.78H5172.79C5177.31 1129.78 5181.82 1130.23 5186.34 1131.13C5200.79 1133.84 5208.02 1145.13 5208.02 1165ZM6371.34 1165H6063.83V1129.78H6154.6L6053 866.975H5772.58L5670.98 1129.78H5740.07C5744.59 1129.78 5749.1 1130.23 5753.62 1131.13C5767.16 1132.94 5773.94 1144.23 5773.94 1165H5531.45V1129.78H5616.8L5918.89 352.204H5979.85L6291.42 1129.78H6336.12C6340.64 1129.78 6345.15 1130.23 6349.67 1131.13C6364.12 1132.94 6371.34 1144.23 6371.34 1165ZM6036.74 827.69L5912.11 503.926L5787.48 827.69H6036.74ZM6753.03 1165H6406.24V1129.78H6514.61V387.425H6406.24V352.204H6818.05C6888.5 352.204 6948.1 368.46 6996.87 400.972C7055.57 441.612 7084.92 495.798 7084.92 563.531C7084.92 590.624 7079.5 617.266 7068.67 643.456C7037.96 712.092 6979.26 757.699 6892.56 780.277L7109.31 1129.78H7154.01C7159.43 1129.78 7164.4 1130.23 7168.91 1131.13C7180.65 1132.94 7186.52 1144.23 7186.52 1165H6975.2L6761.16 792.469H6644.66V1129.78H6753.03V1165ZM6769.29 387.425H6644.66V753.183H6774.71C6813.54 753.183 6846.95 741.895 6874.95 719.317C6920.11 684.096 6942.68 633.07 6942.68 566.24C6942.68 537.341 6937.27 509.796 6926.43 483.606C6897.53 419.486 6845.15 387.425 6769.29 387.425ZM7749.74 1165H7362.3V1129.78H7491V387.425H7428.68C7353.72 388.328 7303.6 434.838 7278.31 526.955L7252.58 623.136H7214.65L7221.42 352.204H7897.39L7902.81 623.136H7864.88L7839.14 526.955C7814.76 434.838 7765.09 388.328 7690.13 387.425H7621.04V1129.78H7714.51C7719.03 1129.78 7723.55 1130.23 7728.06 1131.13C7742.51 1133.84 7749.74 1145.13 7749.74 1165ZM8547.31 387.425V352.204H8823.66V387.425H8715.28V1158.23L8650.26 1171.77L8119.23 514.763V1129.78H8199.16C8203.67 1129.78 8208.19 1130.23 8212.7 1131.13C8227.15 1133.84 8234.38 1145.13 8234.38 1165H7956.67V1129.78H8065.05V387.425H7956.67V352.204H8153.1L8661.1 979.412V387.425H8547.31ZM9512.85 598.752H9483.05L9461.38 529.665C9461.38 527.858 9460.92 526.052 9460.02 524.246C9432.02 433.032 9383.26 387.425 9313.72 387.425H9109.16V726.09H9385.51V765.375H9109.16V1129.78H9313.72C9327.26 1129.78 9340.36 1127.97 9353 1124.36C9401.77 1110.81 9437.89 1065.21 9461.38 987.54L9483.05 918.452H9512.85L9506.08 1165H8870.74V1129.78H8979.12V387.425H8870.74V352.204H9506.08L9512.85 598.752ZM9960.92 1165H9614.13V1129.78H9722.5V387.425H9614.13V352.204H10025.9C10096.4 352.204 10156 368.46 10204.8 400.972C10263.5 441.612 10292.8 495.798 10292.8 563.531C10292.8 590.624 10287.4 617.266 10276.6 643.456C10245.8 712.092 10187.1 757.699 10100.4 780.277L10317.2 1129.78H10361.9C10367.3 1129.78 10372.3 1130.23 10376.8 1131.13C10388.5 1132.94 10394.4 1144.23 10394.4 1165H10183.1L9969.05 792.469H9852.55V1129.78H9960.92V1165ZM9977.18 387.425H9852.55V753.183H9982.59C10021.4 753.183 10054.8 741.895 10082.8 719.317C10128 684.096 10150.6 633.07 10150.6 566.24C10150.6 537.341 10145.2 509.796 10134.3 483.606C10105.4 419.486 10053 387.425 9977.18 387.425ZM11047 949.609C11047 1005.6 11026.7 1053.92 10986.1 1094.56C10928.3 1150.55 10847 1178.55 10742.2 1178.55C10651.9 1178.55 10572 1155.52 10502.5 1109.46C10502.5 1127.52 10501.6 1140.62 10499.7 1148.74C10495.2 1161.39 10482.1 1167.71 10460.5 1167.71V885.94H10503.8C10504.7 894.971 10505.6 904.454 10506.5 914.388C10527.3 1065.21 10603.2 1140.62 10734.1 1140.62C10767.5 1140.62 10798.2 1134.75 10826.2 1123.01C10885.8 1095.91 10915.6 1050.76 10915.6 987.54C10915.6 964.059 10910.2 942.384 10899.4 922.516C10877.7 884.585 10826.7 847.558 10746.3 811.434C10658.7 771.697 10607.2 747.313 10591.9 738.282C10507.9 690.418 10465.9 628.555 10465.9 552.694C10465.9 501.217 10484.4 456.965 10521.4 419.937C10576.5 365.751 10653.3 338.658 10751.7 338.658C10832.1 338.658 10905.7 356.268 10972.5 391.489C10972.5 382.458 10973.4 374.782 10975.2 368.46C10977.9 353.107 10991 345.431 11014.5 345.431V583.851H10971.2C10972.1 532.374 10959 489.025 10931.9 453.804C10893.1 402.327 10836.2 376.588 10761.2 376.588C10732.3 376.588 10705.7 381.555 10681.3 391.489C10625.3 414.067 10597.3 454.255 10597.3 512.054C10597.3 533.729 10602.3 554.5 10612.2 574.368C10633 611.396 10683.1 647.52 10762.6 682.741C10851.1 722.478 10902.5 746.862 10917 755.893C11003.7 805.564 11047 870.136 11047 949.609Z" fill="#0F2D4A"/>
<path d="M349.951 935.063H349.908L349.951 1051.6H349.908L349.951 1168.15L233.098 1168.19L233.097 1168.15L116.582 1168.19L116.581 1168.14C52.1897 1168 0.0236163 1115.77 0 1051.33L0.0419922 1051.33L0 934.793L0.0419922 934.792L0 818.253L116.854 818.21V818.252L233.393 818.21V818.252L349.908 818.21L349.951 935.063ZM583.061 701.986H583.018L583.061 818.525H583.018L583.061 935.063H583.018L583.061 1051.6H583.018L583.061 1168.15L466.207 1168.19L466.164 1051.33L466.206 1051.33L466.164 934.793L466.206 934.792L466.164 818.253L466.206 818.252L466.164 701.986L349.676 702.028L349.675 701.986L233.098 702.028L233.097 701.986L116.582 702.028L116.581 701.986L0.0429688 702.028L0 585.175L116.854 585.133V585.174L233.393 585.133V585.174L349.908 585.133V585.174L466.486 585.133V585.174L583.018 585.133L583.061 701.986ZM816.115 468.907H816.072L816.115 585.448H816.072L816.115 701.986H816.072L816.115 818.525H816.072L816.115 935.063H816.072L816.115 1051.6H816.072L816.115 1168.15L699.262 1168.19L699.219 1051.33L699.261 1051.33L699.219 934.793L699.261 934.792L699.219 818.253L699.261 818.252L699.219 701.714L699.261 701.713L699.219 585.175L699.261 585.174L699.219 468.907L582.77 468.949L582.769 468.907L466.207 468.949L466.206 468.907L349.676 468.949L349.675 468.907L233.098 468.949L233.097 468.907L116.582 468.949L116.581 468.907L0.0429688 468.949L0 352.096L116.854 352.054V352.095L233.393 352.054V352.095L349.908 352.054V352.095L466.486 352.054V352.095L583.018 352.054V352.095L699.58 352.054V352.095L816.072 352.054L816.115 468.907ZM932.627 119.018C997.019 119.163 1049.19 171.396 1049.21 235.827H1049.17L1049.21 352.368H1049.17L1049.21 468.907H1049.17L1049.21 585.448H1049.17L1049.21 701.986H1049.17L1049.21 818.525H1049.17L1049.21 935.063H1049.17L1049.21 1051.6H1049.16C1049.02 1116 996.788 1168.16 932.355 1168.19L932.312 1051.33L932.354 1051.33L932.312 934.793L932.354 934.792L932.312 818.253L932.354 818.252L932.312 701.714L932.354 701.713L932.312 585.175L932.354 585.174L932.312 468.638L932.354 468.637L932.312 352.096L932.354 352.095L932.312 235.827L815.816 235.869L815.815 235.827L699.262 235.869L699.261 235.827L582.77 235.869L582.769 235.827L466.207 235.869L466.206 235.827L349.676 235.869L349.675 235.827L233.098 235.869L233.097 235.827L116.582 235.869L116.581 235.827L0.0429688 235.869C0.0195034 171.333 52.3174 118.997 116.854 118.974V119.015L233.393 118.974V119.015L349.908 118.974V119.015L466.486 118.974V119.015L583.018 118.974V119.015L699.58 118.974V119.015L816.072 118.974V119.015L932.627 118.974V119.018Z" fill="#0F2D4A"/>
</svg>
