<svg width="11115" height="1288" viewBox="0 0 11115 1288" fill="none" xmlns="http://www.w3.org/2000/svg">
<path d="M2242.87 1165H1935.37V1129.78H2026.13L1924.53 866.975H1644.11L1542.51 1129.78H1611.6C1616.12 1129.78 1620.63 1130.23 1625.15 1131.13C1638.7 1132.94 1645.47 1144.23 1645.47 1165H1402.98V1129.78H1488.33L1790.42 352.204H1851.38L2162.95 1129.78H2207.65C2212.17 1129.78 2216.68 1130.23 2221.2 1131.13C2235.65 1132.94 2242.87 1144.23 2242.87 1165ZM1908.27 827.69L1783.64 503.926L1659.02 827.69H1908.27ZM2650.3 387.425H2516.19V766.73H2631.34C2640.37 766.73 2649.85 766.279 2659.78 765.375C2761.83 754.538 2812.86 690.418 2812.86 573.014C2812.86 548.63 2810.15 525.601 2804.73 503.926C2783.96 426.259 2732.48 387.425 2650.3 387.425ZM2653.01 1165H2277.77V1129.78H2386.14V387.425H2277.77V352.204H2689.59C2747.38 352.204 2797.06 361.687 2838.6 380.652C2916.27 417.679 2955.1 480.445 2955.1 568.95C2955.1 609.59 2946.07 646.165 2928.01 678.677C2880.14 763.569 2782.61 806.015 2635.4 806.015H2516.19V1129.78H2617.79C2622.3 1129.78 2626.82 1130.23 2631.34 1131.13C2645.79 1133.84 2653.01 1145.13 2653.01 1165ZM3667.33 598.752H3637.52L3615.85 529.665C3615.85 527.858 3615.4 526.052 3614.49 524.246C3586.5 433.032 3537.73 387.425 3468.19 387.425H3263.64V726.09H3539.99V765.375H3263.64V1129.78H3468.19C3481.74 1129.78 3494.83 1127.97 3507.48 1124.36C3556.24 1110.81 3592.37 1065.21 3615.85 987.54L3637.52 918.452H3667.33L3660.55 1165H3025.22V1129.78H3133.59V387.425H3025.22V352.204H3660.55L3667.33 598.752ZM3983.99 1165H3732.02C3732.02 1160.48 3732.48 1155.97 3733.38 1151.45C3736.09 1137 3747.38 1129.78 3767.24 1129.78C3804.27 1129.78 3832.27 1117.14 3851.23 1091.85L4080.17 776.213L3821.43 387.425H3738.8V352.204H4066.62V387.425H3969.09L4165.51 680.032L4376.84 387.425H4268.47V352.204H4505.53C4503.73 368.46 4491.54 380.2 4468.96 387.425C4463.54 387.425 4458.12 387.425 4452.7 387.425C4431.93 389.232 4413.42 401.875 4397.16 425.356L4188.54 713.898L4468.96 1129.78H4512.31C4516.82 1129.78 4521.34 1130.23 4525.85 1131.13C4540.3 1133.84 4547.53 1145.13 4547.53 1165H4218.35V1129.78H4317.24L4104.56 811.434L3875.62 1129.78H3983.99V1165ZM5205.24 387.425H5071.13V766.73H5186.28C5195.31 766.73 5204.79 766.279 5214.73 765.375C5316.78 754.538 5367.8 690.418 5367.8 573.014C5367.8 548.63 5365.09 525.601 5359.67 503.926C5338.9 426.259 5287.43 387.425 5205.24 387.425ZM5207.95 1165H4832.71V1129.78H4941.08V387.425H4832.71V352.204H5244.53C5302.33 352.204 5352 361.687 5393.54 380.652C5471.21 417.679 5510.04 480.445 5510.04 568.95C5510.04 609.59 5501.01 646.165 5482.95 678.677C5435.08 763.569 5337.55 806.015 5190.34 806.015H5071.13V1129.78H5172.73C5177.25 1129.78 5181.76 1130.23 5186.28 1131.13C5200.73 1133.84 5207.95 1145.13 5207.95 1165ZM6371.28 1165H6063.77V1129.78H6154.53L6052.94 866.975H5772.52L5670.92 1129.78H5740.01C5744.52 1129.78 5749.04 1130.23 5753.56 1131.13C5767.1 1132.94 5773.88 1144.23 5773.88 1165H5531.39V1129.78H5616.73L5918.82 352.204H5979.78L6291.36 1129.78H6336.06C6340.57 1129.78 6345.09 1130.23 6349.61 1131.13C6364.06 1132.94 6371.28 1144.23 6371.28 1165ZM6036.68 827.69L5912.05 503.926L5787.42 827.69H6036.68ZM6752.97 1165H6406.18V1129.78H6514.55V387.425H6406.18V352.204H6817.99C6888.43 352.204 6948.04 368.46 6996.81 400.972C7055.51 441.612 7084.86 495.798 7084.86 563.531C7084.86 590.624 7079.44 617.266 7068.6 643.456C7037.9 712.092 6979.2 757.699 6892.5 780.277L7109.24 1129.78H7153.95C7159.37 1129.78 7164.33 1130.23 7168.85 1131.13C7180.59 1132.94 7186.46 1144.23 7186.46 1165H6975.13L6761.1 792.469H6644.6V1129.78H6752.97V1165ZM6769.22 387.425H6644.6V753.183H6774.64C6813.48 753.183 6846.89 741.895 6874.89 719.317C6920.04 684.096 6942.62 633.07 6942.62 566.24C6942.62 537.341 6937.2 509.796 6926.37 483.606C6897.47 419.486 6845.09 387.425 6769.22 387.425ZM7749.67 1165H7362.24V1129.78H7490.93V387.425H7428.62C7353.66 388.328 7303.54 434.838 7278.25 526.955L7252.51 623.136H7214.58L7221.36 352.204H7897.33L7902.75 623.136H7864.82L7839.08 526.955C7814.7 434.838 7765.03 388.328 7690.07 387.425H7620.98V1129.78H7714.45C7718.97 1129.78 7723.48 1130.23 7728 1131.13C7742.45 1133.84 7749.67 1145.13 7749.67 1165ZM8547.24 387.425V352.204H8823.59V387.425H8715.22V1158.23L8650.2 1171.77L8119.17 514.763V1129.78H8199.1C8203.61 1129.78 8208.13 1130.23 8212.64 1131.13C8227.09 1133.84 8234.32 1145.13 8234.32 1165H7956.61V1129.78H8064.98V387.425H7956.61V352.204H8153.04L8661.03 979.412V387.425H8547.24ZM9512.79 598.752H9482.99L9461.31 529.665C9461.31 527.858 9460.86 526.052 9459.96 524.246C9431.96 433.032 9383.19 387.425 9313.66 387.425H9109.1V726.09H9385.45V765.375H9109.1V1129.78H9313.66C9327.2 1129.78 9340.3 1127.97 9352.94 1124.36C9401.71 1110.81 9437.83 1065.21 9461.31 987.54L9482.99 918.452H9512.79L9506.02 1165H8870.68V1129.78H8979.05V387.425H8870.68V352.204H9506.02L9512.79 598.752ZM9960.86 1165H9614.06V1129.78H9722.44V387.425H9614.06V352.204H10025.9C10096.3 352.204 10155.9 368.46 10204.7 400.972C10263.4 441.612 10292.7 495.798 10292.7 563.531C10292.7 590.624 10287.3 617.266 10276.5 643.456C10245.8 712.092 10187.1 757.699 10100.4 780.277L10317.1 1129.78H10361.8C10367.3 1129.78 10372.2 1130.23 10376.7 1131.13C10388.5 1132.94 10394.3 1144.23 10394.3 1165H10183L9968.98 792.469H9852.48V1129.78H9960.86V1165ZM9977.11 387.425H9852.48V753.183H9982.53C10021.4 753.183 10054.8 741.895 10082.8 719.317C10127.9 684.096 10150.5 633.07 10150.5 566.24C10150.5 537.341 10145.1 509.796 10134.3 483.606C10105.4 419.486 10053 387.425 9977.11 387.425ZM11047 949.609C11047 1005.6 11026.6 1053.92 10986 1094.56C10928.2 1150.55 10846.9 1178.55 10742.2 1178.55C10651.9 1178.55 10571.9 1155.52 10502.4 1109.46C10502.4 1127.52 10501.5 1140.62 10499.7 1148.74C10495.2 1161.39 10482.1 1167.71 10460.4 1167.71V885.94H10503.8C10504.7 894.971 10505.6 904.454 10506.5 914.388C10527.2 1065.21 10603.1 1140.62 10734 1140.62C10767.5 1140.62 10798.2 1134.75 10826.2 1123.01C10885.8 1095.91 10915.6 1050.76 10915.6 987.54C10915.6 964.059 10910.1 942.384 10899.3 922.516C10877.6 884.585 10826.6 847.558 10746.2 811.434C10658.6 771.697 10607.2 747.313 10591.8 738.282C10507.8 690.418 10465.8 628.555 10465.8 552.694C10465.8 501.217 10484.3 456.965 10521.4 419.937C10576.5 365.751 10653.2 338.658 10751.7 338.658C10832 338.658 10905.6 356.268 10972.5 391.489C10972.5 382.458 10973.4 374.782 10975.2 368.46C10977.9 353.107 10991 345.431 11014.5 345.431V583.851H10971.1C10972 532.374 10958.9 489.025 10931.8 453.804C10893 402.327 10836.1 376.588 10761.1 376.588C10732.2 376.588 10705.6 381.555 10681.2 391.489C10625.2 414.067 10597.2 454.255 10597.2 512.054C10597.2 533.729 10602.2 554.5 10612.1 574.368C10632.9 611.396 10683 647.52 10762.5 682.741C10851 722.478 10902.5 746.862 10916.9 755.893C11003.6 805.564 11047 870.136 11047 949.609Z" fill="white"/>
<path d="M349.967 935.062H349.924L349.967 1051.6H349.924L349.967 1168.14L233.113 1168.18L233.112 1168.14L116.582 1168.18L116.581 1168.14C52.1897 1167.99 0.0236163 1115.76 0 1051.33L0.0419922 1051.33L0 934.79L0.0419922 934.789L0 818.251L116.854 818.208V818.25L233.393 818.208V818.25L349.924 818.208L349.967 935.062ZM583.061 701.988H583.018L583.061 818.527H583.018L583.061 935.062H583.018L583.061 1051.6H583.018L583.061 1168.14L466.207 1168.18L466.164 1051.33L466.206 1051.33L466.164 934.79L466.206 934.789L466.164 818.251L466.206 818.25L466.164 701.988L349.676 702.03L349.675 701.988L233.113 702.03L233.112 701.988L116.582 702.03L116.581 701.988L0.0429688 702.03L0 585.177L116.854 585.135V585.176L233.393 585.135V585.176L349.924 585.135V585.176L466.486 585.135V585.176L583.018 585.135L583.061 701.988ZM816.139 468.909H816.096L816.139 585.448H816.096L816.139 701.988H816.096L816.139 818.527H816.096L816.139 935.062H816.096L816.139 1051.6H816.096L816.139 1168.14L699.285 1168.18L699.242 1051.33L699.284 1051.33L699.242 934.79L699.284 934.789L699.242 818.251L699.284 818.25L699.242 701.716L699.284 701.715L699.242 585.177L699.284 585.176L699.242 468.909L582.77 468.951L582.769 468.909L466.207 468.951L466.206 468.909L349.676 468.951L349.675 468.909L233.113 468.951L233.112 468.909L116.582 468.951L116.581 468.909L0.0429688 468.951L0 352.098L116.854 352.056V352.097L233.393 352.056V352.097L349.924 352.056V352.097L466.486 352.056V352.097L583.018 352.056V352.097L699.58 352.056V352.097L816.096 352.056L816.139 468.909ZM932.627 119.017C997.019 119.162 1049.19 171.395 1049.21 235.826H1049.17L1049.21 352.367H1049.17L1049.21 468.909H1049.17L1049.21 585.448H1049.17L1049.21 701.988H1049.17L1049.21 818.527H1049.17L1049.21 935.062H1049.17L1049.21 1051.6H1049.16C1049.02 1115.99 996.788 1168.16 932.355 1168.18L932.312 1051.33L932.354 1051.33L932.312 934.79L932.354 934.789L932.312 818.251L932.354 818.25L932.312 701.716L932.354 701.715L932.312 585.177L932.354 585.176L932.312 468.637L932.354 468.636L932.312 352.098L932.354 352.097L932.312 235.826L815.816 235.869L815.815 235.826L699.285 235.869L699.284 235.826L582.77 235.869L582.769 235.826L466.207 235.869L466.206 235.826L349.676 235.869L349.675 235.826L233.113 235.869L233.112 235.826L116.582 235.869L116.581 235.826L0.0429688 235.869C0.0193139 171.333 52.3173 118.996 116.854 118.973V119.015L233.393 118.973V119.015L349.924 118.973V119.015L466.486 118.973V119.015L583.018 118.973V119.015L699.58 118.973V119.015L816.096 118.973V119.015L932.627 118.973V119.017Z" fill="white"/>
</svg>
