<svg width="1050" height="1050" viewBox="0 0 1050 1050" fill="none" xmlns="http://www.w3.org/2000/svg">
<path d="M349.967 816.089H349.924L349.967 932.628H349.924L349.967 1049.17L233.113 1049.21L233.112 1049.17L116.582 1049.21L116.581 1049.17C52.1897 1049.02 0.0236163 996.79 0 932.358L0.0419922 932.357L0 815.817L0.0419922 815.816L0 699.278L116.854 699.235V699.277L233.393 699.235V699.277L349.924 699.235L349.967 816.089ZM583.061 583.016H583.018L583.061 699.555H583.018L583.061 816.089H583.018L583.061 932.628H583.018L583.061 1049.17L466.207 1049.21L466.164 932.358L466.206 932.357L466.164 815.817L466.206 815.816L466.164 699.278L466.206 699.277L466.164 583.016L349.676 583.058L349.675 583.016L233.113 583.058L233.112 583.016L116.582 583.058L116.581 583.016L0.0429688 583.058L0 466.204L116.854 466.162V466.203L233.393 466.162V466.203L349.924 466.162V466.203L466.486 466.162V466.203L583.018 466.162L583.061 583.016ZM816.139 349.937H816.096L816.139 466.476H816.096L816.139 583.016H816.096L816.139 699.555H816.096L816.139 816.089H816.096L816.139 932.628H816.096L816.139 1049.17L699.285 1049.21L699.242 932.358L699.284 932.357L699.242 815.817L699.284 815.816L699.242 699.278L699.284 699.277L699.242 582.743L699.284 582.742L699.242 466.204L699.284 466.203L699.242 349.937L582.77 349.979L582.769 349.937L466.207 349.979L466.206 349.937L349.676 349.979L349.675 349.937L233.113 349.979L233.112 349.937L116.582 349.979L116.581 349.937L0.0429688 349.979L0 233.125L116.854 233.083V233.124L233.393 233.083V233.124L349.924 233.083V233.124L466.486 233.083V233.124L583.018 233.083V233.124L699.58 233.083V233.124L816.096 233.083L816.139 349.937ZM932.627 0.0439453C997.019 0.18981 1049.19 52.422 1049.21 116.854H1049.17L1049.21 233.395H1049.17L1049.21 349.937H1049.17L1049.21 466.476H1049.17L1049.21 583.016H1049.17L1049.21 699.555H1049.17L1049.21 816.089H1049.17L1049.21 932.628H1049.16C1049.02 997.021 996.788 1049.19 932.355 1049.21L932.312 932.358L932.354 932.357L932.312 815.817L932.354 815.816L932.312 699.278L932.354 699.277L932.312 582.743L932.354 582.742L932.312 466.204L932.354 466.203L932.312 349.664L932.354 349.663L932.312 233.125L932.354 233.124L932.312 116.854L815.816 116.896L815.815 116.854L699.285 116.896L699.284 116.854L582.77 116.896L582.769 116.854L466.207 116.896L466.206 116.854L349.676 116.896L349.675 116.854L233.113 116.896L233.112 116.854L116.582 116.896L116.581 116.854L0.0429688 116.896C0.0193139 52.3602 52.3173 0.0237293 116.854 0V0.0419922L233.393 0V0.0419922L349.924 0V0.0419922L466.486 0V0.0419922L583.018 0V0.0419922L699.58 0V0.0419922L816.096 0V0.0419922L932.627 0V0.0439453Z" fill="white"/>
</svg>
